<?xml version="1.0" standalone="no"?>
<!DOCTYPE svg PUBLIC "-//W3C//DTD SVG 20010904//EN"
 "http://www.w3.org/TR/2001/REC-SVG-20010904/DTD/svg10.dtd">
<svg version="1.0" xmlns="http://www.w3.org/2000/svg"
 width="1274.000000pt" height="1280.000000pt" viewBox="0 0 1274.000000 1280.000000"
 preserveAspectRatio="xMidYMid meet">
<g transform="translate(0.000000,1280.000000) scale(0.100000,-0.100000)"
fill="#000000" stroke="none">
<path d="M6251 12626 c-80 -154 -228 -414 -376 -661 -175 -293 -878 -1427
-910 -1469 -49 -64 -95 -94 -169 -112 -59 -15 -81 -16 -170 -6 -221 26 -470
104 -1404 442 -338 121 -617 220 -621 218 -5 -2 43 -246 106 -543 l114 -540
-11 -365 c-11 -390 -31 -650 -54 -705 -17 -41 -37 -52 -192 -105 -402 -139
-1139 -319 -2049 -501 -252 -50 -468 -94 -478 -98 -19 -7 77 -118 602 -691
674 -736 1311 -1394 1424 -1470 20 -14 39 -30 41 -37 3 -7 -60 -64 -142 -130
-372 -299 -561 -472 -602 -553 -67 -132 -352 -526 -486 -671 -43 -46 -143
-150 -223 -231 -95 -97 -140 -149 -130 -152 8 -2 91 -7 184 -10 94 -3 208 -12
255 -21 167 -29 610 -174 1120 -365 135 -51 309 -113 387 -138 157 -51 154
-48 127 -123 -25 -72 -61 -310 -80 -524 -18 -213 -23 -754 -14 -1465 3 -244 0
-392 -8 -474 -7 -65 -11 -121 -8 -123 6 -6 787 237 970 302 203 72 307 114
547 218 463 203 857 401 1056 533 61 41 116 74 121 74 5 0 15 -21 22 -47 56
-223 325 -727 698 -1308 165 -256 289 -471 362 -627 30 -65 60 -117 65 -115 6
2 93 170 195 373 193 386 195 390 296 544 118 180 286 547 465 1014 46 120 89
220 95 223 7 2 52 -28 101 -68 139 -115 343 -243 530 -335 444 -216 1512 -668
1983 -839 165 -60 210 -72 210 -56 0 6 -21 52 -46 102 -52 105 -84 217 -84
299 0 31 7 106 17 166 12 83 16 180 16 404 0 296 -12 509 -54 930 -11 113 -26
324 -34 470 -10 193 -19 280 -32 320 -9 30 -17 59 -18 63 0 9 235 96 665 244
462 159 715 238 940 293 362 88 484 120 492 128 17 17 -6 42 -160 175 -195
168 -271 245 -317 322 -43 72 -85 200 -115 350 -69 346 -254 805 -431 1074
-34 52 -96 130 -137 172 -40 43 -72 83 -70 88 9 28 876 832 1441 1336 240 214
433 392 429 396 -4 4 -137 27 -297 53 -1289 204 -1199 188 -1702 311 -257 63
-546 134 -642 157 -96 24 -180 48 -187 53 -16 12 -88 650 -104 919 -13 227
-13 566 0 721 12 137 25 218 79 500 55 281 54 275 40 275 -7 0 -85 -71 -173
-158 -89 -87 -182 -171 -208 -186 -163 -95 -1068 -372 -1509 -461 -205 -41
-304 -31 -350 35 -51 73 -739 1203 -831 1365 -107 187 -398 756 -454 888 -16
37 -32 67 -35 67 -4 0 -39 -60 -78 -134z m124 -1050 c126 -58 285 -254 468
-577 103 -183 417 -791 417 -809 0 -9 -80 -100 -177 -202 -296 -308 -422 -503
-637 -976 -95 -208 -134 -274 -161 -270 -25 4 -81 115 -171 338 -115 286 -255
520 -421 705 -171 189 -267 338 -280 433 -19 140 283 752 570 1154 83 116 143
180 194 207 54 28 134 27 198 -3z m2831 -1421 c77 -37 106 -98 139 -290 37
-217 38 -707 0 -887 -37 -180 -83 -215 -495 -379 -303 -120 -646 -291 -815
-405 -250 -169 -361 -210 -401 -149 -22 34 -14 92 32 226 73 217 201 719 224
879 15 101 4 220 -19 220 -10 0 -49 -33 -88 -72 -55 -57 -80 -94 -115 -168
-91 -190 -267 -663 -342 -920 -89 -300 -141 -393 -706 -1240 -174 -261 -340
-512 -367 -557 l-51 -82 -11 -223 c-6 -123 -16 -443 -21 -713 -11 -504 -22
-763 -40 -897 -31 -228 -299 -827 -527 -1177 -123 -189 -242 -340 -307 -388
-127 -96 -255 108 -313 497 -14 96 -17 180 -14 519 l2 404 -58 -6 c-69 -8
-136 -30 -388 -130 -337 -134 -590 -199 -775 -201 -153 -1 -200 27 -200 123 0
114 115 337 284 551 168 213 375 406 586 549 63 42 470 291 903 552 433 260
784 475 779 477 -5 1 -392 -108 -860 -243 -604 -174 -864 -245 -900 -245 -62
0 -281 24 -467 51 -519 75 -892 193 -966 305 -53 81 18 201 171 290 112 66
260 125 635 255 187 64 358 124 380 132 22 8 41 21 43 30 18 93 -802 892
-1059 1031 -43 24 -57 26 -138 24 l-89 -3 140 -150 c259 -278 405 -466 476
-615 30 -62 36 -86 37 -142 0 -57 -3 -70 -24 -92 -31 -33 -107 -56 -185 -56
-128 0 -391 -53 -576 -115 -52 -18 -197 -78 -323 -135 l-228 -103 -26 24
c-105 94 -514 483 -583 555 -300 313 -476 569 -488 708 -13 155 138 240 681
380 712 184 1346 176 2016 -25 484 -146 1040 -436 1351 -706 109 -95 612 -598
879 -881 85 -89 156 -160 159 -158 2 3 -88 157 -201 343 -420 692 -508 857
-585 1093 -122 373 -267 895 -290 1044 -26 168 -221 447 -341 487 -50 17 -65
-4 -64 -88 0 -96 18 -192 74 -398 85 -311 122 -549 108 -692 -13 -132 -60
-146 -197 -57 -302 198 -786 436 -1086 536 -82 27 -163 56 -180 65 -96 48
-162 138 -197 268 -28 104 -31 351 -5 530 48 343 88 504 139 562 44 50 96 70
213 84 216 26 459 -5 712 -89 496 -166 992 -482 1403 -891 182 -183 260 -279
414 -511 113 -169 197 -270 224 -270 36 0 153 145 340 422 158 233 389 494
581 658 356 303 1132 638 1623 700 40 5 126 7 192 4 102 -3 128 -8 171 -29z
m1139 -1910 c599 -71 1080 -226 1174 -379 43 -69 19 -146 -99 -326 -147 -223
-361 -482 -565 -685 -97 -96 -176 -162 -302 -252 -94 -68 -175 -123 -179 -123
-4 0 -113 53 -243 118 -327 163 -515 222 -776 242 -162 12 -208 24 -240 62
-30 36 -31 59 -5 117 53 115 219 273 555 528 66 50 133 105 149 121 27 30 28
30 8 41 -78 42 -321 -48 -837 -309 -422 -214 -695 -381 -695 -424 0 -12 181
-117 317 -185 125 -62 234 -105 422 -166 312 -102 522 -200 619 -289 86 -79
95 -141 32 -209 -116 -127 -578 -305 -980 -378 -161 -29 -461 -37 -585 -15
-49 8 -457 128 -905 266 -448 138 -826 253 -840 256 -14 2 286 -152 666 -343
763 -384 704 -348 1006 -609 620 -535 961 -934 962 -1125 0 -100 -62 -138
-221 -139 -189 0 -407 58 -882 236 -167 63 -305 114 -307 114 -2 0 -4 -125 -4
-277 -1 -337 -15 -769 -30 -878 -55 -401 -199 -425 -463 -74 -182 241 -433
729 -552 1070 -62 179 -98 388 -205 1209 -64 494 -104 764 -120 820 -9 32 -8
36 23 60 80 62 237 210 573 541 396 390 523 503 695 624 551 387 1367 708
1969 774 134 15 701 6 865 -14z m404 -2071 c251 -336 382 -625 471 -1039 37
-174 25 -248 -62 -378 -55 -83 -204 -228 -313 -305 -91 -65 -402 -223 -550
-281 -170 -66 -289 -78 -408 -41 -83 26 -215 113 -337 222 -107 95 -744 738
-949 957 -120 128 -133 145 -117 156 17 13 121 28 321 45 387 33 470 43 580
65 378 76 710 264 1148 648 53 48 103 84 110 81 6 -3 54 -61 106 -130z m-8348
-348 c238 -114 503 -202 765 -255 186 -37 285 -48 544 -61 250 -12 338 -29
360 -70 21 -39 -100 -170 -340 -369 -236 -196 -461 -440 -636 -692 -173 -249
-234 -299 -364 -299 -147 1 -435 91 -763 241 -220 101 -349 186 -384 253 -28
54 -21 136 25 274 66 196 212 463 375 687 105 144 269 355 277 355 4 0 67 -29
141 -64z m5693 -1888 c394 -222 535 -287 751 -343 237 -61 516 -70 787 -24 76
12 140 20 143 18 2 -3 -1 -34 -7 -70 -17 -92 -14 -571 6 -967 17 -353 13 -492
-20 -603 -81 -274 -291 -334 -697 -198 -334 112 -899 391 -1015 502 -88 84
-111 179 -112 457 -1 419 -30 837 -81 1142 -32 197 -34 228 -18 228 7 0 125
-64 263 -142z m-3326 52 c4 -63 -16 -190 -59 -374 -48 -208 -60 -308 -66 -536
-4 -170 -2 -246 12 -363 10 -82 15 -183 13 -226 -8 -131 -62 -204 -243 -325
-267 -179 -777 -400 -1110 -482 -179 -43 -218 -32 -336 94 -120 128 -197 278
-223 437 -36 210 -66 605 -66 860 0 215 22 516 40 545 5 9 35 5 123 -14 402
-90 744 -84 1053 19 123 41 284 122 459 232 215 135 334 195 380 190 17 -2 20
-11 23 -57z m1572 -160 c38 -38 126 -236 209 -470 114 -325 286 -596 588 -928
52 -56 92 -106 90 -110 -3 -4 -53 -110 -112 -237 -122 -262 -241 -500 -282
-564 -21 -32 -62 -66 -162 -132 -158 -105 -232 -143 -324 -165 -86 -22 -151
-9 -234 45 -79 52 -160 140 -423 461 -123 151 -266 324 -317 383 l-93 108 110
117 c143 153 241 275 355 447 157 236 243 404 345 677 73 193 121 294 167 347
39 46 54 50 83 21z"/>
</g>
</svg>
